<?xml version="1.0" encoding="UTF-8" standalone="no"?>
<!-- Created with Inkscape (http://www.inkscape.org/) -->
<svg id="svg2" xmlns:rdf="http://www.w3.org/1999/02/22-rdf-syntax-ns#" xmlns="http://www.w3.org/2000/svg" height="48" width="48" version="1.0" xmlns:cc="http://web.resource.org/cc/" xmlns:xlink="http://www.w3.org/1999/xlink" xmlns:dc="http://purl.org/dc/elements/1.1/">
 <defs id="defs4">
  <radialGradient id="radialGradient2858" gradientUnits="userSpaceOnUse" cy="17.018" cx="15.777" r="13.479">
   <stop id="stop2854" offset="0"/>
   <stop id="stop2816" style="stop-opacity:.49804" offset=".79518"/>
   <stop id="stop2856" style="stop-opacity:0" offset="1"/>
  </radialGradient>
  <radialGradient id="radialGradient1956" gradientUnits="userSpaceOnUse" cy="6.9224" cx="7.7313" gradientTransform="matrix(1.7153 0 -.0000014624 1.3687 -5.9358 -2.6948)" r="13.979">
   <stop id="stop2780" style="stop-color:#d3d7cf" offset="0"/>
   <stop id="stop2782" style="stop-color:#555753" offset="1"/>
  </radialGradient>
  <linearGradient id="linearGradient1958" y2="4.5555" gradientUnits="userSpaceOnUse" x2="-1.1694" y1="25.435" x1="5.1106">
   <stop id="stop2828" style="stop-color:#2e3436" offset="0"/>
   <stop id="stop2830" style="stop-color:#555753" offset="1"/>
  </linearGradient>
  <radialGradient id="radialGradient1960" gradientUnits="userSpaceOnUse" cy="23.891" cx="16.962" gradientTransform="matrix(2.5711 .0000016738 0 2.4613 -24.476 -35.119)" r="14.065">
   <stop id="stop2794" style="stop-color:#fff" offset="0"/>
   <stop id="stop2796" style="stop-color:#d3d7cf" offset="1"/>
  </radialGradient>
  <linearGradient id="linearGradient1962" y2="40.582" gradientUnits="userSpaceOnUse" x2="31.357" y1="6.689" x1="6.764">
   <stop id="stop2844" style="stop-color:#2e3436" offset="0"/>
   <stop id="stop2846" style="stop-color:#555753" offset="1"/>
  </linearGradient>
  <linearGradient id="linearGradient2877" y2="35.819" gradientUnits="userSpaceOnUse" x2="21.277" y1="5.338" x1="7.5694">
   <stop id="stop2873" style="stop-color:#fff" offset="0"/>
   <stop id="stop2875" style="stop-color:#fff;stop-opacity:0" offset="1"/>
  </linearGradient>
  <linearGradient id="linearGradient2885" y2="14.704" gradientUnits="userSpaceOnUse" x2="14.317" y1="7.9114" x1="12.584">
   <stop id="stop2881" style="stop-color:#c8cec3" offset="0"/>
   <stop id="stop2883" style="stop-color:#fff" offset="1"/>
  </linearGradient>
  <radialGradient id="radialGradient2893" gradientUnits="userSpaceOnUse" cy="14.602" cx="15.618" gradientTransform="matrix(2.3206 0 -.0000019172 1.6571 -20.625 -9.558)" r=".99437">
   <stop id="stop2806" style="stop-color:#eeeeec" offset="0"/>
   <stop id="stop2808" style="stop-color:#2e3436" offset="1"/>
  </radialGradient>
  <linearGradient id="linearGradient2909" y2="28.438" gradientUnits="userSpaceOnUse" x2="17.938" y1="20" x1="24.312">
   <stop id="stop2905" style="stop-color:#fff" offset="0"/>
   <stop id="stop2907" style="stop-color:#fff;stop-opacity:0" offset="1"/>
  </linearGradient>
  <linearGradient id="linearGradient2917" y2="26.125" gradientUnits="userSpaceOnUse" x2="28" y1="21.062" x1="18.75">
   <stop id="stop2913" style="stop-color:#fff" offset="0"/>
   <stop id="stop2915" style="stop-color:#fff;stop-opacity:0" offset="1"/>
  </linearGradient>
 </defs>
 <metadata id="metadata7">
  <rdf:RDF>
   <cc:Work rdf:about="">
    <dc:format>image/svg+xml</dc:format>
    <dc:type rdf:resource="http://purl.org/dc/dcmitype/StillImage"/>
    <dc:creator>
     <cc:Agent>
      <dc:title>Lapo Calamandrei</dc:title>
     </cc:Agent>
    </dc:creator>
    <dc:title>Clock</dc:title>
    <cc:license rdf:resource="http://creativecommons.org/licenses/GPL/2.0/"/>
    <dc:subject>
     <rdf:Bag>
      <rdf:li>clock</rdf:li>
      <rdf:li>time</rdf:li>
      <rdf:li>date</rdf:li>
     </rdf:Bag>
    </dc:subject>
   </cc:Work>
   <cc:License rdf:about="http://creativecommons.org/licenses/GPL/2.0/">
    <cc:permits rdf:resource="http://web.resource.org/cc/Reproduction"/>
    <cc:permits rdf:resource="http://web.resource.org/cc/Distribution"/>
    <cc:requires rdf:resource="http://web.resource.org/cc/Notice"/>
    <cc:permits rdf:resource="http://web.resource.org/cc/DerivativeWorks"/>
    <cc:requires rdf:resource="http://web.resource.org/cc/ShareAlike"/>
    <cc:requires rdf:resource="http://web.resource.org/cc/SourceCode"/>
   </cc:License>
  </rdf:RDF>
 </metadata>
 <g id="layer1">
  <g id="g1902" style="opacity:.2" transform="translate(8.5,10)">
   <path id="path1898" style="fill-rule:evenodd" d="m15 14l8-7-6 9-4 2 2-4z"/>
   <path id="path1900" style="fill-rule:evenodd" d="m15 16l6 4-4-6-4-2 2 4z"/>
  </g>
  <path id="path2850" style="fill:url(#radialGradient2858)" d="m29.257 17.018a13.479 13.479 0 1 1 -26.959 0 13.479 13.479 0 1 1 26.959 0z" transform="matrix(-1.6837 0 0 1.6961 50.76 -4.5025)"/>
  <path id="path1862" style="stroke:url(#linearGradient1958);stroke-linecap:round;stroke-width:.62724;fill:url(#radialGradient1956)" d="m29.257 17.018a13.479 13.479 0 1 1 -26.959 0 13.479 13.479 0 1 1 26.959 0z" transform="matrix(1.595 0 0 1.5935 -1.1656 -4.0978)"/>
  <path id="path2752" style="stroke:url(#linearGradient1962);stroke-linecap:round;stroke-width:.72861;fill:url(#radialGradient1960)" d="m29.257 17.018a13.479 13.479 0 1 1 -26.959 0 13.479 13.479 0 1 1 26.959 0z" transform="matrix(1.3725 0 0 1.3725 2.3459 -.35715)"/>
  <path id="path1970" style="opacity:.2;fill-rule:evenodd" d="m35.5 13l-11.219 10.281-3.781-2.281 2.406 4-2.406 4 3.875-2.312 8.125 6.312-6.219-8 9.219-12z"/>
  <path id="path2790" style="stroke:url(#linearGradient2885);stroke-linecap:round;stroke-width:.22398;fill:none" d="m17.562 10.75a3.5625 4.3125 0 1 1 -7.124 0 3.5625 4.3125 0 1 1 7.124 0z" transform="matrix(4.9123 0 0 4.058 -44.772 -20.623)"/>
  <g id="g2897" transform="translate(4)">
   <path id="path2802" style="fill-rule:evenodd" d="m19 24l9 7-7-9-5-3 3 5z"/>
   <path id="path2895" style="opacity:.3;fill:url(#linearGradient2917);fill-rule:evenodd" d="m28 31l-7-9-5-3 12 12z"/>
  </g>
  <path id="path2800" style="fill-rule:evenodd" d="m23 22l12-11-10 13-5 3 3-5z"/>
  <path id="path2887" style="opacity:.3;fill:url(#linearGradient2909);fill-rule:evenodd" d="m23 22l12-11-15 16 3-5z"/>
  <path id="path2901" style="stroke:#000;stroke-linecap:round;stroke-width:.57146;fill:url(#radialGradient2893)" d="m17.192 15.162a0.99437 0.92808 0 1 1 -1.989 0 0.99437 0.92808 0 1 1 1.989 0z" transform="matrix(1.0222 0 0 1.0784 7.4412 6.6499)"/>
  <path id="path2786" style="fill:url(#radialGradient2893)" d="m17.192 15.162a0.99437 0.92808 0 1 1 -1.989 0 0.99437 0.92808 0 1 1 1.989 0z" transform="matrix(1.0222 0 0 1.0784 7.4412 6.6499)"/>
  <path id="path2812" style="fill:#eeeeec" d="m16 14.5a0.5 0.5 0 1 1 -1 0 0.5 0.5 0 1 1 1 0z" transform="translate(8,8)"/>
  <path id="path2865" style="opacity:.6;stroke:url(#linearGradient2877);stroke-linecap:round;stroke-width:.65695;fill:none" d="m29.257 17.018a13.479 13.479 0 1 1 -26.959 0 13.479 13.479 0 1 1 26.959 0z" transform="matrix(1.5229 0 0 1.5214 -.027538 -2.8714)"/>
 </g>
</svg>
