<?xml version="1.0" encoding="UTF-8" standalone="no"?>
<!-- Created with Inkscape (http://www.inkscape.org/) -->
<svg id="svg2761" xmlns:rdf="http://www.w3.org/1999/02/22-rdf-syntax-ns#" xmlns="http://www.w3.org/2000/svg" height="50" width="50" version="1.0" xmlns:cc="http://creativecommons.org/ns#" xmlns:xlink="http://www.w3.org/1999/xlink" xmlns:dc="http://purl.org/dc/elements/1.1/">
 <defs id="defs2763">
  <linearGradient id="linearGradient5137">
   <stop id="stop5139" style="stop-color:#eeeeec" offset="0"/>
   <stop id="stop5141" style="stop-color:#e6e6e3" offset="1"/>
  </linearGradient>
  <radialGradient id="radialGradient2838" gradientUnits="userSpaceOnUse" cy="42.688" cx="23.938" gradientTransform="matrix(1 0 0 .24763 0 32.117)" r="23.76">
   <stop id="stop5227" offset="0"/>
   <stop id="stop3535" style="stop-opacity:0" offset="1"/>
  </radialGradient>
  <linearGradient id="linearGradient2840" y2="43.826" xlink:href="#linearGradient5137" gradientUnits="userSpaceOnUse" x2="31.861" gradientTransform="translate(-75.197 82.257)" y1="37.842" x1="31.743"/>
  <linearGradient id="linearGradient2842" y2="38.876" xlink:href="#linearGradient5137" gradientUnits="userSpaceOnUse" x2="39.904" gradientTransform="translate(-75.197 82.257)" y1="6.376" x1="17.248"/>
  <linearGradient id="linearGradient2844" y2="40.22" gradientUnits="userSpaceOnUse" x2="23.529" gradientTransform="translate(-75.197 82.257)" y1="34.573" x1="23.155">
   <stop id="stop11402" offset="0"/>
   <stop id="stop11404" style="stop-opacity:0" offset="1"/>
  </linearGradient>
  <radialGradient id="radialGradient2846" gradientUnits="userSpaceOnUse" cy="16.305" cx="22.938" gradientTransform="matrix(1.1403 0 0 1.2479 -81.006 74.677)" r="15.562">
   <stop id="stop5239" style="stop-color:#fff" offset="0"/>
   <stop id="stop5247" style="stop-color:#fff" offset=".5"/>
   <stop id="stop5241" style="stop-color:#9c9c9c" offset="1"/>
  </radialGradient>
  <linearGradient id="linearGradient2848" y2="26.039" gradientUnits="userSpaceOnUse" x2="20.157" gradientTransform="translate(-75.197 82.257)" y1="5.0996" x1="20.157">
   <stop id="stop6242" style="stop-color:#fff" offset="0"/>
   <stop id="stop6244" style="stop-color:#fff;stop-opacity:0" offset="1"/>
  </linearGradient>
 </defs>
 <metadata id="metadata2766">
  <rdf:RDF>
   <cc:Work rdf:about="">
    <dc:format>image/svg+xml</dc:format>
    <dc:type rdf:resource="http://purl.org/dc/dcmitype/StillImage"/>
    <cc:license rdf:resource="http://creativecommons.org/licenses/by/3.0/"/>
    <dc:title>Checkbox Logo</dc:title>
    <dc:date>Tuesday, March 17th 2009</dc:date>
    <dc:creator>
     <cc:Agent>
      <dc:title>David Bensimon</dc:title>
     </cc:Agent>
    </dc:creator>
   </cc:Work>
   <cc:License rdf:about="http://creativecommons.org/licenses/by/3.0/">
    <cc:permits rdf:resource="http://creativecommons.org/ns#Reproduction"/>
    <cc:permits rdf:resource="http://creativecommons.org/ns#Distribution"/>
    <cc:requires rdf:resource="http://creativecommons.org/ns#Notice"/>
    <cc:requires rdf:resource="http://creativecommons.org/ns#Attribution"/>
    <cc:permits rdf:resource="http://creativecommons.org/ns#DerivativeWorks"/>
   </cc:License>
  </rdf:RDF>
 </metadata>
 <g id="layer1">
  <g id="g5702" transform="translate(76.364 -81.451)">
   <rect id="rect5632" style="fill:none" height="48" width="48" y="82.257" x="-75.197"/>
   <path id="path13582" style="opacity:.4;fill:url(#radialGradient2838);fill-rule:evenodd" d="m47.697 42.688a23.76 5.8836 0 1 1 -47.519 0 23.76 5.8836 0 1 1 47.519 0z" transform="matrix(.96824 0 0 .86380 -73.749 88.354)"/>
   <path id="path9222" style="fill-rule:evenodd;stroke:#888a85;fill:url(#linearGradient2840)" d="m-60.822 117.79s1.217 4.94-3.856 4.98c-2.43 0.02-1.932 4.04-1.932 4.04l30.846-0.03s0.419-3.9-2.022-3.95c-4.988-0.09-3.811-5.1-3.811-5.1l-19.225 0.06z"/>
   <path id="path5636" style="fill-rule:evenodd;stroke:#888a85;fill:url(#linearGradient2842)" d="m-70.308 85.736h38.128c2.026 0 3.501 1.427 3.501 3.626l0.011 26.208c0 1.69-0.528 2.21-2.034 2.21l-40.963-0.02c-1.179-0.03-2.019-0.49-2.034-2.02l0.015-26.566c0-1.774 1.539-3.438 3.376-3.438z"/>
   <rect id="rect5638" style="fill-rule:evenodd;stroke:#205b30;stroke-width:1px;fill:#659835" height="22.997" width="37" y="89.759" x="-69.691"/>
   <path id="path10672" style="opacity:.6;fill:url(#linearGradient2844);fill-rule:evenodd" d="m-61.205 118.3c0.084 2.17-0.283 2.91-1.633 3.67l23.615 1.3c-0.949-1.17-2.329-2.93-1.953-4.99l-20.029 0.02z"/>
   <path id="path6575" style="stroke-opacity:.43902;stroke:#8d8d8f;stroke-linecap:round;stroke-width:1px;fill:none" d="m-65.205 123.75c6.707 0.01 27.797 0 27.797 0"/>
   <path id="path8029" style="stroke:#fff;stroke-linecap:round;stroke-width:1px;fill:none" d="m-65.549 124.76h28.72"/>
   <path id="path5672" style="fill-rule:evenodd;fill:url(#radialGradient2846)" d="m-62.349 101.76l9.367 9.15 15.568-14.447c-0.037-0.096-4.798-4.944-4.861-4.815l-10.737 9.452-3.748-3.909-5.589 4.569z"/>
   <path id="path5642" style="opacity:.75;fill:url(#linearGradient2848);fill-rule:evenodd" d="m-69.173 90.289v18.011c16.444-1.36 22.598-10.116 35.968-11.031v-7.012l-35.968 0.032z"/>
  </g>
 </g>
</svg>
